<?xml version="1.0" encoding="utf-8"?>
<!-- Generator: Adobe Illustrator 26.0.2, SVG Export Plug-In . SVG Version: 6.00 Build 0)  -->
<svg version="1.1" id="Layer_1" xmlns="http://www.w3.org/2000/svg" xmlns:xlink="http://www.w3.org/1999/xlink" x="0px" y="0px"
	 viewBox="0 0 318.7 278.2" style="enable-background:new 0 0 318.7 278.2;" xml:space="preserve">
<style type="text/css">
	.st0{fill:#EDEDED;}
	.st1{fill:#DADADA;}
	.st2{fill:#FD9D8E;}
</style>
<path class="st0" d="M262.2,184c2.6,5.1,4.1,10.3,2.5,16.3c-2.3,8.6-12.3,15-21.1,12.7c-0.8-0.2-1.7,0-1.6,0
	c1.1,4.9,2.7,9.8,3.2,14.8c0.6,6.1-3.3,10.6-7.8,13.3c-13,8-22.3,0.8-30.7-9.1c2,8.4,0.4,15.6-6,21c-6.6,5.6-14,5-21.9,1.5
	c-42.8-25.5-85.5-51-128.3-76.5c-8.5-8.6-17.1-17.2-25.6-25.9c-12.8-13.2-20.7-29-23.6-47.1C-3,78.3,2.9,53.9,20.1,33
	c15-18.2,34.4-29.3,58.5-32.2c18.8-2.3,36.3,1.1,53,9.3c10.6,5.2,19.1,13.2,27.3,22.3C193.4,83,227.8,133.5,262.2,184z"/>
<path class="st1" d="M262.3,183.7c-1.8-1-3.7-2.1-5.2-3.6c-31.1-31-62.2-62-93.1-93.2c-3.3-3.4-5.2-4.1-9-0.3
	c-14.9,14.6-35.3,15.1-49.5,1.3c1.2-1.4,2.4-2.9,3.8-4.3c15.4-15.4,30.8-30.8,46.2-46.3c1.4-1.4,2.5-3,3.9-4.9
	c6.2-5.8,12.1-11.6,18.7-16.5C189.6,7.2,203,2.8,217.5,0.8c18.9-2.5,36.7,0.5,53.2,9.4c25.6,13.9,41.6,35.4,46.6,64.3
	c4,23.2-0.8,44.9-13.1,64.8c-2.6,4.3-6.1,8.2-9.6,11.8C284,162,273.2,172.7,262.3,183.7z"/>
<path class="st1" d="M50.3,178.3c1.7-1.5,3.5-2.5,4.9-3.8c10.4-10.3,21.1-20.4,31-31.2c6.5-7.1,20-6.7,25.6-0.6
	c7.2,7.9,7.4,17.9-0.3,25.7c-1.7,1.7-3.3,3.5-5.4,5.8c20.5-1.2,27.4,5.4,25.8,23.7c15.7-5.9,21.3-5.6,27.8,3.1
	c7.6,10.2,2.7,19-5.2,26.7c4.9,0.4,9.6,0,13.6,1.3c9.2,3.1,13.5,12.1,11.1,21.6c-0.3,1.1-0.5,2.3-0.8,3.8
	c-6.3,6.9-12.3,13.8-19.1,19.9c-5.7,5.1-14,4.9-21.1,0.7c-5.9-3.5-9.4-11.1-8.4-18.4c0-0.3-0.3-0.6-0.8-1.6
	c-7.4,4.1-15.2,6.3-22.9,1c-7.5-5.2-9.7-12.6-7.5-21.7c-11.3,8.4-20.6,6.6-27.4,0.1c-5.8-5.6-7.3-15.8-1.1-25.3
	c-11.8,2.8-20.5-1-24.2-12.1C43.9,190.5,44.5,183.7,50.3,178.3 M152.8,229.5C152.8,229.5,152.9,229.5,152.8,229.5z"/>
<path class="st2" d="M152.8,229.5C152.9,229.5,152.8,229.5,152.8,229.5z"/>
</svg>
