<?xml version="1.0" encoding="utf-8"?>
<!-- Generator: Adobe Illustrator 26.0.2, SVG Export Plug-In . SVG Version: 6.00 Build 0)  -->
<svg version="1.1" id="Слой_1" xmlns="http://www.w3.org/2000/svg" xmlns:xlink="http://www.w3.org/1999/xlink" x="0px" y="0px"
	 viewBox="0 0 126.2 31.5" style="enable-background:new 0 0 126.2 31.5;" xml:space="preserve">
<style type="text/css">
	.st0{enable-background:new    ;}
</style>
<g class="st0">
	<path d="M6.3,30c-2-1-3.5-2.4-4.6-4.2C0.6,24,0,22,0,19.7c0-2.2,0.6-4.3,1.7-6c1.1-1.8,2.6-3.2,4.6-4.2c1.9-1,4.2-1.5,6.6-1.5
		s4.7,0.5,6.6,1.5c2,1,3.5,2.4,4.6,4.2c1.1,1.8,1.6,3.8,1.6,6.1c0,2.3-0.5,4.3-1.6,6.1C23,27.6,21.4,29,19.5,30
		c-2,1-4.2,1.5-6.6,1.5C10.4,31.5,8.2,31,6.3,30z M16.3,23.8c0.9-1,1.3-2.3,1.3-4c0-1.7-0.4-3-1.3-3.9c-0.9-1-2-1.4-3.4-1.4
		c-1.4,0-2.5,0.5-3.4,1.4c-0.9,1-1.3,2.3-1.3,3.9c0,1.7,0.4,3,1.3,4c0.9,1,2,1.4,3.4,1.4C14.3,25.2,15.4,24.7,16.3,23.8z"/>
	<path d="M53.6,0v31.2H46v-2.3c-1.5,1.8-3.7,2.6-6.7,2.6c-2.1,0-4-0.5-5.7-1.4c-1.7-1-3.1-2.3-4.1-4.1c-1-1.8-1.5-3.9-1.5-6.2
		c0-2.4,0.5-4.4,1.5-6.2c1-1.8,2.3-3.1,4.1-4.1c1.7-1,3.6-1.4,5.7-1.4c2.7,0,4.8,0.8,6.3,2.4V0H53.6z M44.4,23.8
		c0.9-1,1.3-2.3,1.3-4c0-1.7-0.4-3-1.3-3.9c-0.9-1-2-1.4-3.4-1.4c-1.4,0-2.5,0.5-3.4,1.4c-0.9,1-1.3,2.3-1.3,3.9c0,1.7,0.4,3,1.3,4
		c0.9,1,2,1.4,3.4,1.4C42.4,25.2,43.5,24.7,44.4,23.8z"/>
	<path d="M73.7,25c0.8-0.3,1.6-0.8,2.4-1.5l4.2,4.4c-2.2,2.5-5.4,3.7-9.7,3.7c-2.7,0-5-0.5-7-1.5s-3.6-2.4-4.7-4.2
		c-1.1-1.8-1.7-3.8-1.7-6.1c0-2.2,0.5-4.2,1.6-6c1.1-1.8,2.6-3.2,4.5-4.2c1.9-1,4.1-1.5,6.4-1.5c2.2,0,4.2,0.5,6.1,1.4
		c1.8,0.9,3.3,2.2,4.4,4c1.1,1.8,1.6,3.8,1.6,6.2l-16.3,3.1c0.9,1.8,2.6,2.7,5.2,2.7C72,25.5,72.9,25.3,73.7,25z M66.6,15
		c-0.9,0.9-1.4,2.1-1.5,3.7l9.2-1.8c-0.3-1-0.8-1.7-1.6-2.3C72,14,71,13.7,69.9,13.7C68.6,13.7,67.4,14.1,66.6,15z"/>
	<path d="M109.7,8.4v22.8h-7.6v-2.3c-1.5,1.8-3.7,2.6-6.7,2.6c-2.1,0-4-0.5-5.6-1.4c-1.7-1-3-2.3-4-4.1c-1-1.8-1.5-3.9-1.5-6.2
		c0-2.4,0.5-4.4,1.5-6.2c1-1.8,2.3-3.1,4-4.1c1.7-1,3.6-1.4,5.6-1.4c2.7,0,4.8,0.8,6.3,2.4v-2H109.7z M100.5,23.8
		c0.9-1,1.3-2.3,1.3-4c0-1.7-0.4-3-1.3-3.9c-0.9-1-2-1.4-3.4-1.4c-1.4,0-2.5,0.5-3.4,1.4c-0.9,1-1.3,2.3-1.3,3.9c0,1.7,0.4,3,1.3,4
		c0.9,1,2,1.4,3.4,1.4C98.5,25.2,99.7,24.7,100.5,23.8z"/>
	<path d="M117.2,29.4c-1.6-1.4-2.3-3.5-2.3-6.2V0h8v22.8c0,0.8,0.2,1.5,0.7,1.9c0.4,0.4,1,0.7,1.8,0.7c0.6,0,1.2-0.1,1.8-0.4l0.3,6
		c-1.2,0.4-2.5,0.6-3.7,0.6C120.9,31.5,118.8,30.8,117.2,29.4z"/>
</g>
</svg>
